<?xml version="1.0" encoding="UTF-8"?>
<svg id="Layer_1" data-name="Layer 1" xmlns="http://www.w3.org/2000/svg" viewBox="0 0 98.66 34.97">
  <defs>
    <style>
      .cls-1 {
        fill: #5e9952;
      }
    </style>
  </defs>
  <g>
    <path class="cls-1" d="M6.81,21L0,0H6.12l5.73,18.18h-3.09L14.79,0h5.46l5.7,18.18h-2.97L28.89,0h5.67l-6.81,21h-6.36l-4.86-15.45h1.68l-5.01,15.45s-6.39,0-6.39,0Z"/>
    <path class="cls-1" d="M42.57,16.38h10.98v4.62h-16.83V0h16.44V4.62h-10.59v11.76Zm-.42-8.25h9.75v4.41h-9.75v-4.41Z"/>
    <path class="cls-1" d="M62.73,16.38h10.98v4.62h-16.83V0h16.44V4.62h-10.59v11.76Zm-.42-8.25h9.75v4.41h-9.75v-4.41Z"/>
    <path class="cls-1" d="M77.04,21V0h9.93c2.3,0,4.33,.43,6.09,1.29,1.76,.86,3.14,2.07,4.12,3.63,.99,1.56,1.48,3.41,1.48,5.55s-.49,4.02-1.48,5.59c-.99,1.57-2.37,2.79-4.12,3.65-1.76,.86-3.79,1.29-6.09,1.29,0,0-9.93,0-9.93,0Zm5.94-4.74h3.69c1.22,0,2.27-.23,3.17-.69,.89-.46,1.58-1.12,2.08-1.99s.75-1.9,.75-3.08-.25-2.25-.75-3.1-1.2-1.5-2.08-1.96c-.89-.46-1.95-.69-3.17-.69h-3.69v11.52h0Z"/>
  </g>
  <g>
    <path class="cls-1" d="M1.51,34.97v-10.08h1.44v10.08H1.51Z"/>
    <path class="cls-1" d="M5.98,34.97v-10.08h1.18l6.67,8.28h-.62v-8.28h1.44v10.08h-1.18l-6.67-8.28h.62v8.28s-1.44,0-1.44,0Z"/>
    <path class="cls-1" d="M23.55,34.97v-8.83h-3.46v-1.25h8.34v1.25h-3.46v8.83h-1.42Z"/>
    <path class="cls-1" d="M31.44,34.97h-1.44v-10.08h1.44v10.08Zm5.92-4.49h-6.06v-1.25h6.06v1.25Zm-.13-5.59h1.44v10.08h-1.44v-10.08Z"/>
    <path class="cls-1" d="M40.16,34.97l4.56-10.08h1.42l4.58,10.08h-1.51l-4.08-9.27h.58l-4.08,9.27h-1.47Zm1.94-2.52l.39-1.15h5.67l.42,1.15s-6.48,0-6.48,0Z"/>
    <path class="cls-1" d="M52.23,34.97v-10.08h1.44v10.08h-1.44Z"/>
    <path class="cls-1" d="M56.69,34.97v-10.08h1.44v8.83h5.46v1.25h-6.9Z"/>
    <path class="cls-1" d="M63.72,34.97l4.57-10.08h1.42l4.58,10.08h-1.51l-4.08-9.27h.58l-4.08,9.27s-1.48,0-1.48,0Zm1.94-2.52l.39-1.15h5.67l.42,1.15s-6.48,0-6.48,0Z"/>
    <path class="cls-1" d="M75.79,34.97v-10.08h1.18l6.67,8.28h-.62v-8.28h1.44v10.08h-1.18l-6.67-8.28h.62v8.28s-1.44,0-1.44,0Z"/>
    <path class="cls-1" d="M87.48,34.97v-10.08h4.25c1.08,0,2.02,.21,2.84,.63s1.46,1.01,1.92,1.77,.68,1.64,.68,2.64-.23,1.88-.68,2.64c-.46,.76-1.09,1.35-1.92,1.77-.82,.42-1.77,.63-2.84,.63h-4.25Zm1.44-1.25h2.72c.83,0,1.56-.16,2.17-.48s1.08-.76,1.42-1.33c.34-.57,.5-1.23,.5-1.98s-.17-1.42-.5-1.99c-.34-.57-.81-1.01-1.42-1.32s-1.33-.48-2.17-.48h-2.72v7.57h0Z"/>
  </g>
</svg>