<?xml version="1.0" encoding="utf-8"?>
<svg viewBox="95.761 30.612 99 35" xmlns="http://www.w3.org/2000/svg">
  <path id="Verified_Shop_in_Thailand_" data-name="Verified Shop in Thailand " class="cls-1" d="M 104.663 51.451 L 103.859 51.451 L 102.019 59.209 L 100.18 51.451 L 99.368 51.451 L 101.597 60.593 L 102.442 60.593 L 104.663 51.451 Z M 105.554 59.381 C 105.318 59.03 105.165 58.567 105.119 58.066 L 108.375 57.152 C 108.358 56.165 108.175 55.366 107.824 54.752 C 107.474 54.138 107.008 53.832 106.428 53.832 C 105.826 53.832 105.338 54.157 104.965 54.804 C 104.593 55.453 104.407 56.292 104.407 57.322 C 104.407 58.343 104.587 59.181 104.948 59.834 C 105.311 60.485 105.8 60.811 106.419 60.811 C 106.83 60.829 107.233 60.645 107.571 60.283 C 107.898 59.918 108.149 59.414 108.292 58.829 L 107.712 58.404 C 107.61 58.821 107.435 59.187 107.206 59.46 C 106.979 59.72 106.703 59.856 106.419 59.845 C 106.103 59.874 105.791 59.707 105.554 59.381 Z M 105.421 55.469 C 105.655 55.02 105.98 54.795 106.395 54.785 C 106.704 54.758 107.008 54.923 107.24 55.242 C 107.474 55.593 107.625 56.053 107.671 56.551 L 105.061 57.269 C 105.066 56.516 105.187 55.915 105.421 55.469 Z M 108.823 54.141 L 108.823 54.941 C 108.893 54.915 108.966 54.904 109.038 54.901 C 109.171 54.911 109.237 55.025 109.237 55.248 L 109.237 60.607 L 109.941 60.607 L 109.941 55.983 C 110.134 55.485 110.375 55.163 110.662 55.017 C 110.907 54.915 111.165 54.944 111.4 55.095 L 111.632 54.076 C 111.397 53.921 111.139 53.868 110.886 53.929 C 110.483 54.024 110.133 54.408 109.941 54.966 C 109.925 54.57 109.878 54.305 109.8 54.168 C 109.723 54.03 109.593 53.96 109.411 53.96 C 109.209 53.962 109.01 54.024 108.823 54.141 Z M 112.05 52.384 C 112.235 52.65 112.52 52.65 112.704 52.384 C 112.792 52.244 112.838 52.057 112.833 51.862 C 112.839 51.665 112.794 51.47 112.705 51.327 C 112.52 51.062 112.235 51.062 112.051 51.327 C 111.963 51.47 111.916 51.665 111.922 51.862 C 111.917 52.057 111.963 52.244 112.051 52.384 L 112.05 52.384 Z M 112.892 60.607 L 112.892 54.785 C 112.886 54.236 112.709 53.96 112.361 53.96 C 112.16 53.962 111.96 54.024 111.773 54.141 L 111.773 54.941 C 111.846 54.915 111.921 54.903 111.997 54.901 C 112.124 54.919 112.187 55.034 112.187 55.248 L 112.187 60.607 L 112.892 60.607 Z M 114.06 60.607 L 114.765 60.607 L 114.765 54.992 L 116.248 54.992 C 116.391 54.992 116.463 55.095 116.463 55.299 L 116.463 60.607 L 117.167 60.607 L 117.167 54.838 C 117.167 54.554 117.125 54.349 117.039 54.225 C 116.925 54.086 116.781 54.019 116.638 54.038 L 114.765 54.038 L 114.765 53.074 C 114.776 52.154 115.055 51.686 115.601 51.67 C 115.855 51.657 116.107 51.732 116.339 51.887 L 116.529 51.064 C 116.297 50.85 115.971 50.742 115.552 50.742 C 115.094 50.742 114.731 50.937 114.466 51.327 C 114.201 51.718 114.066 52.301 114.06 53.074 L 114.06 54.038 L 113.604 54.038 L 113.604 54.992 L 114.06 54.992 L 114.06 60.607 Z M 119.127 59.381 C 118.892 59.03 118.739 58.567 118.692 58.066 L 121.949 57.152 C 121.932 56.165 121.749 55.366 121.397 54.752 C 121.047 54.138 120.581 53.832 120.001 53.832 C 119.4 53.832 118.912 54.157 118.54 54.804 C 118.167 55.453 117.98 56.292 117.98 57.322 C 117.98 58.343 118.161 59.181 118.522 59.834 C 118.883 60.485 119.374 60.811 119.992 60.811 C 120.403 60.829 120.806 60.645 121.144 60.283 C 121.471 59.918 121.722 59.414 121.865 58.829 L 121.285 58.404 C 121.183 58.821 121.008 59.187 120.781 59.46 C 120.553 59.72 120.276 59.856 119.992 59.845 C 119.675 59.874 119.364 59.707 119.127 59.381 Z M 118.995 55.469 C 119.229 55.02 119.553 54.795 119.968 54.785 C 120.278 54.758 120.581 54.923 120.814 55.242 C 121.047 55.593 121.198 56.053 121.245 56.551 L 118.634 57.269 C 118.639 56.516 118.76 55.915 118.995 55.469 Z M 125.744 50.948 L 125.744 54.696 C 125.418 54.127 124.95 53.807 124.46 53.821 C 123.908 53.791 123.38 54.16 123.026 54.817 C 122.662 55.482 122.479 56.314 122.479 57.309 C 122.479 58.305 122.662 59.135 123.026 59.801 C 123.377 60.456 123.903 60.824 124.452 60.799 C 124.98 60.813 125.482 60.434 125.802 59.782 C 125.808 60.142 125.847 60.385 125.918 60.508 C 125.99 60.634 126.109 60.696 126.274 60.696 C 126.479 60.696 126.682 60.635 126.872 60.515 L 126.872 59.717 C 126.794 59.741 126.717 59.75 126.639 59.742 C 126.523 59.745 126.433 59.587 126.448 59.409 L 126.448 50.948 L 125.744 50.948 Z M 125.359 59.324 C 125.118 59.628 124.819 59.795 124.509 59.795 C 124.132 59.815 123.769 59.563 123.527 59.111 C 123.282 58.657 123.159 58.056 123.159 57.309 C 123.159 56.563 123.28 55.959 123.523 55.501 C 123.761 55.044 124.124 54.788 124.502 54.811 C 124.998 54.793 125.468 55.172 125.744 55.816 L 125.744 58.185 C 125.744 58.632 125.616 59.011 125.359 59.324 Z M 133.376 52.236 C 133.166 51.884 132.901 51.624 132.605 51.483 C 132.286 51.329 131.953 51.256 131.619 51.27 C 131.039 51.261 130.541 51.476 130.123 51.914 C 129.724 52.301 129.483 52.985 129.49 53.716 C 129.486 54.062 129.529 54.405 129.618 54.72 C 129.69 54.98 129.792 55.217 129.92 55.417 C 130.071 55.62 130.243 55.78 130.43 55.886 C 130.615 56.007 130.805 56.107 131 56.183 L 131.671 56.424 L 132.175 56.608 C 132.311 56.66 132.445 56.725 132.576 56.806 C 132.7 56.871 132.814 56.968 132.916 57.093 C 132.997 57.212 133.063 57.355 133.111 57.514 C 133.299 58.162 133.158 58.93 132.775 59.325 C 132.497 59.612 132.114 59.757 131.628 59.757 C 131.159 59.757 130.784 59.596 130.504 59.279 C 130.226 58.96 130.105 58.575 130.144 58.12 L 129.308 57.953 C 129.241 58.768 129.472 59.574 129.908 60.039 C 130.358 60.554 130.931 60.811 131.628 60.811 C 132.324 60.811 132.895 60.575 133.339 60.104 C 133.77 59.671 134.023 58.919 134.006 58.12 C 134.008 57.848 133.984 57.579 133.935 57.317 C 133.896 57.101 133.841 56.895 133.769 56.701 C 133.694 56.513 133.594 56.353 133.477 56.229 C 133.363 56.1 133.245 55.984 133.121 55.885 C 132.974 55.78 132.821 55.701 132.662 55.647 C 132.461 55.569 132.301 55.507 132.18 55.461 L 131.637 55.252 C 131.128 55.098 130.778 54.928 130.584 54.744 C 130.39 54.56 130.293 54.216 130.293 53.713 C 130.291 53.291 130.433 52.899 130.666 52.685 C 130.915 52.428 131.233 52.301 131.619 52.301 C 132.001 52.301 132.313 52.411 132.555 52.628 C 132.799 52.847 132.92 53.147 132.92 53.523 L 133.691 53.523 C 133.698 53.047 133.586 52.585 133.376 52.236 Z M 136.277 54.16 C 135.998 54.346 135.748 54.614 135.539 54.952 L 135.539 50.948 L 134.835 50.948 L 134.835 60.607 L 135.539 60.607 L 135.539 55.905 C 135.721 55.599 135.939 55.35 136.181 55.171 C 136.425 54.969 136.696 54.855 136.972 54.838 C 137.094 54.831 137.215 54.874 137.325 54.958 C 137.41 55.025 137.483 55.122 137.54 55.242 C 137.594 55.379 137.631 55.529 137.648 55.686 C 137.669 55.837 137.684 55.991 137.69 56.143 C 137.692 56.259 137.693 56.424 137.693 56.64 L 137.693 60.607 L 138.398 60.607 L 138.398 56.343 C 138.398 55.434 138.298 54.787 138.1 54.406 C 137.9 54.024 137.597 53.832 137.188 53.832 C 136.872 53.838 136.562 53.951 136.277 54.16 Z M 139.193 57.322 C 139.193 58.335 139.38 59.17 139.753 59.826 C 140.126 60.483 140.61 60.811 141.207 60.811 C 141.804 60.811 142.289 60.483 142.661 59.826 C 143.034 59.17 143.221 58.335 143.221 57.322 C 143.221 56.31 143.034 55.474 142.661 54.817 C 142.289 54.16 141.804 53.832 141.207 53.832 C 140.61 53.832 140.126 54.16 139.753 54.817 C 139.38 55.474 139.193 56.31 139.193 57.322 Z M 142.54 57.322 C 142.54 58.069 142.422 58.67 142.181 59.125 C 141.664 60.036 140.751 60.036 140.233 59.125 C 139.993 58.67 139.873 58.069 139.873 57.322 C 139.873 56.575 139.993 55.973 140.233 55.518 C 140.751 54.609 141.664 54.609 142.181 55.518 C 142.422 55.973 142.54 56.575 142.54 57.322 Z M 144.845 63.18 L 144.845 59.936 C 145.171 60.512 145.645 60.832 146.138 60.811 C 146.688 60.837 147.216 60.467 147.567 59.807 C 147.935 59.136 148.118 58.31 148.118 57.322 C 148.118 56.335 147.935 55.507 147.567 54.838 C 147.216 54.178 146.688 53.808 146.138 53.832 C 145.876 53.83 145.618 53.926 145.384 54.11 C 145.154 54.284 144.952 54.536 144.795 54.849 C 144.784 54.489 144.744 54.246 144.675 54.122 C 144.606 53.997 144.486 53.935 144.314 53.935 C 144.113 53.937 143.913 53.997 143.726 54.116 L 143.726 54.914 C 143.799 54.89 143.874 54.88 143.951 54.888 C 144.065 54.885 144.156 55.045 144.14 55.223 L 144.14 63.18 L 144.845 63.18 Z M 145.231 55.306 C 145.47 55.003 145.77 54.838 146.079 54.838 C 146.461 54.814 146.827 55.068 147.069 55.526 C 147.315 55.984 147.439 56.589 147.439 57.336 C 147.439 58.074 147.315 58.673 147.069 59.132 C 146.829 59.587 146.467 59.841 146.088 59.82 C 145.579 59.82 145.165 59.484 144.845 58.816 L 144.845 56.446 C 144.844 56 144.972 55.62 145.229 55.306 L 145.231 55.306 Z M 150.832 52.384 C 151.017 52.65 151.302 52.65 151.486 52.384 C 151.574 52.244 151.62 52.057 151.615 51.862 C 151.621 51.665 151.575 51.47 151.486 51.327 C 151.302 51.062 151.017 51.062 150.832 51.327 C 150.744 51.47 150.697 51.665 150.703 51.862 C 150.698 52.057 150.744 52.244 150.831 52.384 L 150.832 52.384 Z M 151.672 60.607 L 151.672 54.785 C 151.667 54.236 151.489 53.96 151.142 53.96 C 150.941 53.962 150.741 54.024 150.554 54.141 L 150.554 54.941 C 150.627 54.915 150.702 54.903 150.777 54.901 C 150.904 54.919 150.968 55.034 150.968 55.248 L 150.968 60.607 L 151.672 60.607 Z M 154.258 54.168 C 153.98 54.355 153.73 54.627 153.521 54.966 C 153.504 54.57 153.458 54.305 153.384 54.168 C 153.309 54.03 153.181 53.96 152.999 53.96 C 152.794 53.96 152.592 54.022 152.402 54.141 L 152.402 54.941 C 152.478 54.914 152.555 54.903 152.633 54.901 C 152.76 54.919 152.824 55.034 152.824 55.248 L 152.824 60.607 L 153.521 60.607 L 153.528 55.827 C 153.715 55.544 153.932 55.312 154.171 55.145 C 154.415 54.958 154.681 54.852 154.954 54.838 C 155.076 54.831 155.197 54.874 155.306 54.958 C 155.391 55.025 155.465 55.122 155.521 55.242 C 155.576 55.379 155.613 55.529 155.629 55.686 C 155.65 55.837 155.665 55.991 155.671 56.143 C 155.674 56.259 155.675 56.424 155.675 56.64 L 155.675 60.607 L 156.379 60.607 L 156.379 56.343 C 156.379 55.434 156.279 54.787 156.081 54.406 C 155.882 54.024 155.578 53.832 155.169 53.832 C 154.853 53.838 154.542 53.954 154.258 54.168 Z M 163.63 52.506 L 163.63 51.464 L 158.874 51.464 L 158.874 52.506 L 160.895 52.506 L 160.895 60.607 L 161.658 60.607 L 161.649 52.506 L 163.63 52.506 Z M 165.669 54.16 C 165.391 54.346 165.14 54.614 164.93 54.952 L 164.93 50.948 L 164.226 50.948 L 164.226 60.607 L 164.93 60.607 L 164.93 55.905 C 165.113 55.599 165.331 55.35 165.573 55.171 C 165.818 54.969 166.088 54.855 166.365 54.838 C 166.487 54.831 166.607 54.874 166.717 54.958 C 166.803 55.025 166.876 55.122 166.933 55.242 C 166.985 55.379 167.023 55.529 167.039 55.686 C 167.062 55.837 167.076 55.991 167.081 56.143 C 167.084 56.259 167.086 56.424 167.086 56.64 L 167.086 60.607 L 167.79 60.607 L 167.79 56.343 C 167.79 55.434 167.69 54.787 167.491 54.406 C 167.293 54.024 166.988 53.832 166.58 53.832 C 166.264 53.838 165.953 53.951 165.668 54.16 L 165.669 54.16 Z M 172.04 59.42 L 172.04 55.894 C 172.04 55.196 171.899 54.681 171.614 54.341 C 171.329 54.002 170.944 53.832 170.458 53.832 C 169.607 53.832 169.05 54.355 168.784 55.402 L 169.355 55.789 C 169.424 55.544 169.522 55.32 169.646 55.133 C 169.736 54.987 169.849 54.879 169.973 54.817 C 170.127 54.739 170.288 54.703 170.45 54.708 C 171.041 54.708 171.339 55.133 171.344 55.983 C 171.347 56.129 171.311 56.272 171.246 56.376 C 171.164 56.495 171.062 56.578 170.951 56.614 C 170.828 56.663 170.704 56.703 170.579 56.73 C 170.46 56.755 170.317 56.776 170.151 56.793 C 170.03 56.811 169.941 56.824 169.883 56.833 C 169.824 56.843 169.724 56.865 169.584 56.903 C 169.47 56.93 169.359 56.976 169.253 57.039 C 169.152 57.106 169.056 57.184 168.962 57.269 C 168.859 57.36 168.768 57.482 168.697 57.631 C 168.626 57.793 168.571 57.967 168.532 58.151 C 168.483 58.378 168.458 58.616 168.461 58.854 C 168.454 59.198 168.503 59.539 168.603 59.845 C 168.683 60.099 168.81 60.312 168.966 60.458 C 169.102 60.581 169.249 60.677 169.402 60.734 C 169.541 60.786 169.685 60.811 169.829 60.811 C 170.387 60.811 170.903 60.499 171.378 59.871 C 171.389 60.182 171.432 60.396 171.507 60.515 C 171.581 60.635 171.706 60.696 171.884 60.696 C 172.083 60.686 172.279 60.621 172.463 60.504 L 172.463 59.73 C 172.39 59.755 172.315 59.766 172.239 59.768 C 172.107 59.76 172.04 59.644 172.04 59.42 Z M 169.501 57.804 C 169.708 57.628 169.997 57.518 170.367 57.477 C 170.853 57.415 171.179 57.309 171.344 57.155 L 171.336 59.163 C 170.992 59.657 170.544 59.936 170.077 59.948 C 169.485 59.983 169.19 59.596 169.19 58.789 C 169.19 58.31 169.293 57.98 169.501 57.804 Z M 173.048 52.384 C 173.233 52.65 173.518 52.65 173.702 52.384 C 173.79 52.244 173.835 52.057 173.83 51.862 C 173.837 51.665 173.791 51.47 173.702 51.327 C 173.518 51.062 173.233 51.062 173.048 51.327 C 172.96 51.47 172.913 51.665 172.919 51.862 C 172.914 52.057 172.96 52.244 173.047 52.384 L 173.048 52.384 Z M 173.888 60.607 L 173.888 54.785 C 173.883 54.236 173.706 53.96 173.358 53.96 C 173.157 53.962 172.957 54.024 172.77 54.141 L 172.77 54.941 C 172.843 54.915 172.918 54.903 172.993 54.901 C 173.121 54.919 173.184 55.034 173.184 55.248 L 173.184 60.607 L 173.888 60.607 Z M 175.712 50.948 L 175.007 50.948 L 175.007 60.607 L 175.712 60.607 L 175.712 50.948 Z M 180.029 59.42 L 180.029 55.894 C 180.029 55.196 179.887 54.681 179.603 54.341 C 179.317 54.002 178.932 53.832 178.446 53.832 C 177.595 53.832 177.036 54.355 176.771 55.402 L 177.344 55.789 C 177.412 55.544 177.51 55.32 177.634 55.133 C 177.724 54.987 177.837 54.879 177.961 54.817 C 178.114 54.739 178.276 54.703 178.437 54.708 C 179.029 54.708 179.326 55.133 179.332 55.983 C 179.334 56.129 179.299 56.272 179.233 56.376 C 179.151 56.495 179.049 56.578 178.939 56.614 C 178.816 56.663 178.691 56.703 178.565 56.73 C 178.446 56.755 178.305 56.776 178.139 56.793 C 178.017 56.811 177.927 56.824 177.869 56.833 C 177.812 56.843 177.712 56.865 177.571 56.903 C 177.458 56.93 177.346 56.976 177.24 57.039 C 177.14 57.106 177.044 57.184 176.949 57.269 C 176.846 57.36 176.756 57.482 176.685 57.631 C 176.614 57.793 176.558 57.967 176.519 58.151 C 176.471 58.378 176.447 58.616 176.448 58.854 C 176.442 59.198 176.491 59.539 176.589 59.845 C 176.671 60.099 176.798 60.312 176.954 60.458 C 177.089 60.581 177.237 60.677 177.389 60.734 C 177.529 60.786 177.672 60.811 177.816 60.811 C 178.373 60.811 178.89 60.499 179.366 59.871 C 179.376 60.182 179.42 60.396 179.494 60.515 C 179.568 60.635 179.693 60.696 179.871 60.696 C 180.07 60.686 180.267 60.621 180.451 60.504 L 180.451 59.73 C 180.378 59.755 180.302 59.766 180.227 59.768 C 180.094 59.76 180.028 59.644 180.028 59.42 L 180.029 59.42 Z M 177.488 57.804 C 177.696 57.628 177.984 57.518 178.354 57.477 C 178.841 57.415 179.167 57.309 179.332 57.155 L 179.324 59.163 C 178.981 59.657 178.532 59.936 178.064 59.948 C 177.473 59.983 177.179 59.596 177.179 58.789 C 177.179 58.31 177.281 57.98 177.488 57.804 Z M 182.615 54.168 C 182.337 54.354 182.086 54.627 181.877 54.966 C 181.86 54.57 181.814 54.305 181.74 54.168 C 181.665 54.03 181.537 53.96 181.355 53.96 C 181.151 53.96 180.949 54.022 180.758 54.141 L 180.758 54.941 C 180.835 54.914 180.912 54.903 180.99 54.901 C 181.116 54.919 181.18 55.034 181.18 55.248 L 181.18 60.607 L 181.877 60.607 L 181.885 55.827 C 182.071 55.544 182.288 55.312 182.527 55.145 C 182.772 54.958 183.038 54.852 183.31 54.838 C 183.433 54.831 183.553 54.874 183.662 54.958 C 183.747 55.025 183.821 55.122 183.878 55.242 C 183.932 55.379 183.969 55.529 183.986 55.686 C 184.007 55.837 184.021 55.991 184.028 56.143 C 184.03 56.259 184.032 56.424 184.032 56.64 L 184.032 60.607 L 184.736 60.607 L 184.736 56.343 C 184.736 55.434 184.636 54.787 184.437 54.406 C 184.238 54.024 183.935 53.832 183.526 53.832 C 183.21 53.838 182.899 53.954 182.615 54.168 Z M 188.771 50.948 L 188.771 54.696 C 188.446 54.127 187.976 53.807 187.487 53.821 C 186.936 53.791 186.407 54.16 186.053 54.817 C 185.689 55.482 185.506 56.314 185.506 57.309 C 185.506 58.305 185.689 59.135 186.053 59.801 C 186.404 60.458 186.93 60.824 187.479 60.799 C 188.008 60.813 188.509 60.434 188.829 59.782 C 188.834 60.142 188.873 60.385 188.945 60.508 C 189.017 60.634 189.136 60.696 189.302 60.696 C 189.506 60.696 189.708 60.635 189.898 60.515 L 189.898 59.717 C 189.822 59.741 189.744 59.75 189.666 59.742 C 189.55 59.745 189.459 59.587 189.476 59.409 L 189.476 50.948 L 188.771 50.948 Z M 188.386 59.324 C 188.146 59.628 187.846 59.795 187.536 59.795 C 187.159 59.817 186.796 59.565 186.554 59.111 C 186.308 58.657 186.185 58.056 186.185 57.309 C 186.185 56.563 186.307 55.959 186.55 55.501 C 186.788 55.044 187.151 54.788 187.528 54.811 C 188.026 54.795 188.494 55.172 188.771 55.816 L 188.771 58.185 C 188.771 58.632 188.643 59.011 188.386 59.324 Z" style="fill-rule: evenodd; fill: rgb(223, 29, 32);"/>
  <text style="fill: rgb(223, 29, 32); font-family: Arial, sans-serif; font-size: 17px; font-weight: 700; text-transform: capitalize; white-space: pre;" x="97.24" y="47.567" transform="matrix(0.873648, 0, 0, 0.886227, 18.203686, 4.57438)">BOLDHEMP</text>
</svg>