<?xml version="1.0" encoding="utf-8"?>
<svg viewBox="-27.794 0 99 35" xmlns="http://www.w3.org/2000/svg">
  <path id="WEED_" data-name="WEED  " class="cls-1" d="M 9.106 1.518 L 4.614 1.518 L -0.053 15.398 L -4.563 1.518 L -9.342 1.518 L -13.855 15.472 L -18.577 1.518 L -23.07 1.518 L -16.248 20.375 L -11.537 20.375 L -7.051 6.786 L -2.518 20.375 L 2.285 20.375 L 9.106 1.518 Z M 26.432 16.868 L 15.506 16.868 L 15.506 12.62 L 24.295 12.62 L 24.295 9.113 L 15.478 9.113 L 15.478 5.023 L 25.98 5.023 L 25.98 1.518 L 11.24 1.518 L 11.24 20.375 L 26.432 20.375 L 26.432 16.868 Z M 44.762 16.868 L 33.842 16.868 L 33.842 12.62 L 42.63 12.62 L 42.63 9.113 L 33.813 9.113 L 33.813 5.023 L 44.313 5.023 L 44.313 1.518 L 29.574 1.518 L 29.574 20.375 L 44.762 20.375 L 44.762 16.868 Z M 48.047 20.399 L 55.684 20.375 C 59.147 20.375 61.773 19.489 63.562 17.717 C 65.348 15.947 66.225 13.647 66.187 10.813 C 66.146 8.033 65.238 5.788 63.463 4.081 C 61.683 2.372 59.092 1.518 55.684 1.518 L 48.047 1.518 L 48.047 20.399 Z M 52.288 5.102 L 55.684 5.102 C 57.745 5.102 59.293 5.616 60.332 6.643 C 61.371 7.67 61.892 9.069 61.892 10.839 C 61.928 12.681 61.427 14.133 60.388 15.195 C 59.348 16.258 57.779 16.788 55.684 16.788 L 52.288 16.788 L 52.288 5.102 Z" style="fill: rgb(64, 155, 32); fill-rule: evenodd;"/>
  <text style="fill: rgb(64, 155, 32); font-family: Roboto; font-size: 36px; white-space: pre;" transform="matrix(0.327922, 0, 0, -0.345967, -150.515167, 152.086502)" x="381.907" y="372.103">泰国大麻认证商店</text>
</svg>